<svg viewBox="0 0 210 107" xmlns="http://www.w3.org/2000/svg"><path d="m118.895 20.346s-13.743 16.922-13.04 18.001c.975-1.079-4.934-18.186-4.934-18.186s-1.233-3.597-5.102-15.387h-14.009-33.998-25.637l-2.56 11.068h19.299 4.579c12.415 0 19.995 5.132 17.878 14.225-2.287 9.901-13.123 14.128-24.665 14.128h-4.316l5.552-24.208h-19.295l-8.192 35.368h27.398c20.612 0 40.166-11.067 43.692-25.288.617-2.614.53-9.185-1.054-13.053 0-.093-.091-.271-.178-.537-.087-.093-.178-.722.178-.814.172-.092.525.271.525.358 0 0 .179.456.351.813l17.44 50.315 44.404-51.216 18.761-.092h4.579c12.424 0 20.09 5.132 17.969 14.225-2.29 9.901-13.205 14.128-24.75 14.128h-4.405l5.635-24.207h-19.287l-8.198 35.368h27.398c20.611 0 40.343-11.067 43.604-25.288 3.347-14.225-11.101-25.293-31.89-25.293h-18.143-22.727c-10.834 13.049-12.862 15.572-12.862 15.572z"/><path d="m99.424 67.329c-52.143 0-94.424 6.12-94.424 13.683 0 7.558 42.281 13.678 94.424 13.678 52.239 0 94.524-6.12 94.524-13.678.001-7.563-42.284-13.683-94.524-13.683zm-3.346 18.544c-11.98 0-21.58-2.072-21.58-4.595s9.599-4.59 21.58-4.59c11.888 0 21.498 2.066 21.498 4.59 0 2.523-9.61 4.595-21.498 4.595z"/></svg>